<svg width="14" height="10" viewBox="0 0 14 10" fill="none" xmlns="http://www.w3.org/2000/svg">
<path d="M8.6709 0.773438C8.81738 0.65625 9.02246 0.65625 9.16895 0.773438L13.0361 4.64062C13.1533 4.78711 13.1533 4.99219 13.0361 5.13867L9.16895 9.00586C9.02246 9.12305 8.81738 9.12305 8.6709 9.00586L8.08496 8.41992C7.96777 8.27344 7.96777 8.06836 8.11426 7.92188L10.458 5.63672H0.379883C0.174805 5.63672 0.0283203 5.49023 0.0283203 5.28516V4.46484C0.0283203 4.28906 0.174805 4.11328 0.379883 4.11328H10.458L8.11426 1.85742C7.96777 1.71094 7.96777 1.50586 8.08496 1.35938L8.6709 0.773438Z" fill="white"/>
</svg>
