<?xml version="1.0" encoding="UTF-8"?><svg id="Layer_2" xmlns="http://www.w3.org/2000/svg" xmlns:xlink="http://www.w3.org/1999/xlink" viewBox="0 0 297.87 51.45"><defs><style>.cls-1{fill:url(#linear-gradient);}.cls-1,.cls-2,.cls-3,.cls-4,.cls-5{stroke-width:0px;}.cls-2{fill:#4fd6f6;}.cls-3{fill:#9ae8fa;}.cls-4{fill:#06429e;}.cls-5{fill:#03c5f2;}</style><linearGradient id="linear-gradient" x1="52.03" y1="-169.45" x2="84.8" y2="-169.45" gradientTransform="translate(-2.21 191.28) rotate(1.73)" gradientUnits="userSpaceOnUse"><stop offset="0" stop-color="#ff8c00"/><stop offset=".7" stop-color="#ffd200"/></linearGradient></defs><g id="Layer_1-2"><path class="cls-5" d="m57.39,5.18C38.58,2.54,20.5,3.76,1.43,8.92.6,9.19.06,9.74,0,10.18c-.05.38.55.55.71.6,4.26.98,6.4,1.64,10.5,3.01.38.11.82.16,1.26.05,7.54-1.42,14.76-2.19,21.87-2.41,3.99-.11,7.98-.05,11.97.22,1.05,0,3.88.23,7,.51.61-2.85,2.01-5.2,4.08-6.99Z"/><path class="cls-1" d="m78.6,6.38c1.01.25,1.94.6,2.82.96,5.82,2.36,6.8,4.87,6.53,7.03s-1.86,4.17-4.45,3.86-3.02-2.27-6.46-3.66l-1.23,6.08c5.75,2.48,11.66,6.13,10.78,13.3-.83,6.81-7.05,9.16-13.7,9.08l-.13,1.08c-.18,1.45-.27,2.23-1.04,2.99-.62.6-1.53,1.04-3.52.79s-2.76-.89-3.22-1.62c-.56-.92-.5-1.9-.18-3.51l.16-.84c-1.36-.35-2.6-.75-3.76-1.25-5.88-2.43-6.82-5.24-6.56-7.34.28-2.29,1.97-4.1,4.56-3.78s3.1,2.64,7.32,4.14l1.25-6.69c-5.75-2.48-11.73-6.02-10.88-13.01.83-6.81,7.1-9.09,13.86-8.88l.15-1.27c.18-1.45.27-2.23,1.04-2.99.62-.6,1.53-1.04,3.52-.79s2.76.89,3.22,1.62c.56.92.5,1.89.18,3.51l-.27,1.19Zm-9.42,11.56l.58-4.7c-2.93,0-3.71.89-3.81,1.67-.14,1.14,1.15,2.1,3.24,3.02Zm5.31,12.02l-.6,4.88c2.69-.04,3.47-.92,3.57-1.7.15-1.2-1.07-2.21-2.97-3.18Z"/><path class="cls-2" d="m52.98,15.13c-2.33-.19-4.94-.38-7.54-.58-8.2-.49-16.4-.22-25.15.82-.71.11-1.2.55-1.26.93-.11.44.38.71.55.77,3.72,1.64,5.63,2.62,9.08,4.59.27.16.6.22.98.22,1.75-.11,3.5-.22,5.19-.27,5.47-.16,10.77.05,15.91.6l4.56.52c-1.43-2.05-2.37-4.55-2.32-7.6Z"/><path class="cls-3" d="m56.63,25.95l-2-.25c-5.85-.87-12.3-1.31-18.21-1.2-.55,0-1.04.33-1.15.71-.16.38.11.77.38.93,3.17,2.19,4.7,3.39,7.54,5.85.22.16.44.27.71.27,2.64.16,4.87.33,6.94.57.44-3.49,2.74-6.08,5.79-6.88Z"/><path class="cls-4" d="m159.85,32.96c.82,0,1.53-.71,1.53-1.53,0-7.11-4.43-10.39-10.22-10.39-6.12,0-10.5,4.37-10.5,10.5,0,6.45,4.37,10.61,10.66,10.61,2.95,0,6.29-1.09,8.31-3.17.33-.33.44-.66.44-1.09,0-.82-.66-1.53-1.53-1.53-.44,0-.82.16-1.09.44-1.42,1.42-3.99,2.19-6.07,2.19-3.88,0-7-2.35-7.33-6.07l15.8.05Zm-15.8-2.79c.6-3.88,3.66-6.01,7.16-6.01,3.99,0,6.67,2.13,6.83,6.01h-14Z"/><path class="cls-4" d="m111.13,11.92c-3.01,0-6.01,1.2-7.49,3.88v-2.24c0-.93-.71-1.69-1.64-1.69s-1.64.77-1.64,1.69v26.95c0,.93.71,1.69,1.64,1.69s1.64-.77,1.64-1.69v-11.65c1.42,2.73,4.7,4.05,7.55,4.05,5.8,0,10.33-3.66,10.33-10.5-.05-6.72-4.54-10.5-10.39-10.5Zm-.22,17.88c-3.99,0-7.16-3.01-7.16-7.33s3.12-7.33,7.16-7.33,7.16,2.68,7.16,7.33-3.23,7.33-7.16,7.33Z"/><path class="cls-5" d="m229.23,11.92c-3.01,0-6.01,1.2-7.49,3.88v-2.24c0-.93-.71-1.69-1.64-1.69s-1.64.77-1.64,1.69v26.95c0,.93.71,1.69,1.64,1.69s1.64-.77,1.64-1.69v-11.65c1.42,2.73,4.7,4.05,7.55,4.05,5.8,0,10.33-3.66,10.33-10.5-.05-6.72-4.54-10.5-10.39-10.5Zm-.22,17.88c-3.99,0-7.16-3.01-7.16-7.33s3.12-7.33,7.16-7.33,7.16,2.68,7.16,7.33-3.23,7.33-7.16,7.33Z"/><path class="cls-4" d="m138.36,21.91c-1.15-.55-2.24-.82-3.61-.82-2.52,0-5.03.93-6.34,3.12v-1.48c0-.87-.71-1.64-1.64-1.64s-1.64.71-1.64,1.64v17.77c0,.93.77,1.69,1.69,1.69s1.69-.77,1.69-1.69v-10.01c0-3.88,2.13-6.01,6.01-6.07.93,0,1.69.16,2.46.55.22.11.44.16.66.16.93,0,1.64-.71,1.64-1.64,0-.77-.38-1.37-.93-1.59Z"/><path class="cls-4" d="m176.8,40.34c0-.82-.66-1.48-1.48-1.48-.11,0-.27,0-.38.05h0c-.44.11-.87.16-1.31.16-2.41,0-3.23-1.53-3.23-3.88v-10.72h3.83c.82,0,1.42-.66,1.42-1.42s-.66-1.42-1.42-1.42h-3.77v-4.26c0-.93-.77-1.69-1.69-1.69s-1.69.77-1.69,1.69v4.26h-2.62c-.82,0-1.42.66-1.42,1.42,0,.82.66,1.42,1.42,1.42h2.62v10.72c0,4.48,2.08,7,6.4,6.94.71,0,1.42-.11,2.13-.33h0c.05,0,.11-.05.11-.05.6-.16,1.09-.77,1.09-1.42Z"/><path class="cls-4" d="m191.72,40.34c0-.82-.66-1.48-1.48-1.48-.11,0-.27,0-.38.05h0c-.44.11-.87.16-1.31.16-2.41,0-3.23-1.53-3.23-3.88v-10.72h4.48c.82,0,1.42-.66,1.42-1.42s-.66-1.42-1.42-1.42h-4.43v-4.26c0-.93-.77-1.69-1.69-1.69s-1.69.77-1.69,1.69v4.26h-2.62c-.82,0-1.42.66-1.42,1.42s.66,1.42,1.42,1.42h2.62v10.72c0,4.48,2.08,7,6.4,6.94.71,0,1.42-.11,2.13-.33h0c.05,0,.11-.05.11-.05.66-.16,1.09-.77,1.09-1.42Z"/><path class="cls-5" d="m252.41,42.15c3.01,0,6.01-1.2,7.49-3.88v2.24c0,.93.71,1.69,1.64,1.69s1.64-.77,1.64-1.69v-17.83c0-.93-.71-1.69-1.64-1.69s-1.64.77-1.64,1.69v2.53c-1.42-2.73-4.7-4.05-7.54-4.05-5.8,0-10.33,3.66-10.33,10.5.05,6.72,4.54,10.5,10.39,10.5Zm.22-17.88c3.99,0,7.16,3.01,7.16,7.33s-3.12,7.33-7.16,7.33-7.16-2.68-7.16-7.33,3.23-7.33,7.16-7.33Z"/><path class="cls-5" d="m284.78,23.07c.34-1-.67-2.04-1.65-2.04-.77,0-1.37.49-1.64,1.15l-6.07,15.75-6.56-15.86h0c-.27-.6-.87-.98-1.53-.98-.93,0-1.75.77-1.75,1.75,0,.22.05.44.11.66h0l7.71,18.1-1.91,4.87c-.98,2.13-2.73,2.08-4.48,1.31h0c-.22-.11-.38-.16-.66-.16-.87,0-1.53.71-1.53,1.53,0,.6.38,1.15.87,1.37h0c3.72,1.8,7.27,1.15,8.97-3.12,0,0,9.96-23.83,10.13-24.31Z"/><path class="cls-4" d="m213.4,23.07c.34-1-.67-2.04-1.65-2.04-.77,0-1.37.49-1.64,1.15l-6.07,15.75-6.56-15.86h0c-.27-.6-.87-.98-1.53-.98-.93,0-1.75.77-1.75,1.75,0,.22.05.44.11.66h0l7.71,18.1-1.91,4.87c-.98,2.13-2.73,2.08-4.48,1.31h0c-.22-.11-.38-.16-.66-.16-.87,0-1.53.71-1.53,1.53,0,.6.38,1.15.87,1.37h0c3.72,1.8,7.27,1.15,8.97-3.12,0,0,9.96-23.83,10.13-24.31Z"/><path class="cls-4" d="m292.43,21.04c.19,0,.3.1.3.28s-.12.28-.3.28h-1.42v3.48c0,.21-.11.33-.3.33s-.31-.12-.31-.33v-3.48h-1.42c-.19,0-.3-.11-.3-.28s.12-.28.3-.28h3.46Z"/><path class="cls-4" d="m297.87,21.41v3.67c0,.21-.12.33-.3.33s-.31-.12-.31-.33v-2.97h-.01l-1.42,2.26c-.08.12-.18.18-.3.18-.12,0-.23-.06-.3-.17l-1.44-2.3h-.01v3c0,.2-.11.32-.3.32s-.3-.12-.3-.32v-3.67c0-.24.14-.42.4-.42.15,0,.29.08.39.25l1.57,2.52,1.55-2.51c.1-.16.24-.25.41-.25.25,0,.38.17.38.41Z"/></g></svg>